<svg width="141" height="43" viewBox="0 0 141 43" fill="none" xmlns="http://www.w3.org/2000/svg">
<mask id="mask0" mask-type="alpha" maskUnits="userSpaceOnUse" x="0" y="0" width="141" height="43">
<rect width="141" height="43" fill="#C4C4C4"/>
</mask>
<g mask="url(#mask0)">
<g clip-path="url(#clip0)">
<path d="M21.3297 23.4697L20.3171 10.3789L15.1479 23.541H13.4603L8.28767 10.3789L7.29028 23.4697H5.20605L6.5106 7.02393H9.25975L14.3581 20.5203L19.4564 7.02393H22.1836L23.4629 23.4765L21.3297 23.4697Z" fill="#F58025"/>
<path d="M26.8398 23.4698H24.7539L29.4962 11.2377H31.8673L36.6686 23.4698H34.3498L33.2663 20.4406H27.9553L26.8398 23.4698ZM30.6353 13.3114H30.5796L28.6422 18.5637H32.5558C32.5778 18.5637 30.6353 13.3114 30.6353 13.3114Z" fill="#F58025"/>
<path d="M45.1541 23.4698L41.7788 18.7962H40.4743V23.4698H38.3428V11.3802H42.0657C44.8165 11.3802 46.5953 12.7158 46.5953 15.1001C46.5953 16.8888 45.5996 18.0088 44.0807 18.5349L47.7209 23.4698H45.1541ZM42.0438 13.2402H40.4793V17.128H42.0438C43.5846 17.128 44.4638 16.4119 44.4638 15.1239C44.4638 13.9088 43.6099 13.2402 42.0438 13.2402Z" fill="#F58025"/>
<path d="M56.9944 23.4698L51.8521 17.6049V23.4698H49.7173V11.3802H51.8521V16.8107L56.5944 11.3802H59.0364L53.9853 17.0551L59.6068 23.4698H56.9944Z" fill="#F58025"/>
<path d="M61.2256 23.4698V11.3802H68.695V13.2639H63.3604V16.2439H67.9373V18.1293H63.3604V21.5861H68.8604V23.4698H61.2256Z" fill="#F58025"/>
<path d="M84.5637 23.6547C82.9745 23.6724 81.4045 23.3045 79.9868 22.5822L80.3243 20.2929C81.4382 21.0328 82.9807 21.6998 84.616 21.6998C86.3458 21.6998 87.5322 20.7936 87.5322 19.2917C87.5322 17.7423 86.8437 17.0279 84.616 16.047C81.4095 14.6419 80.1573 13.6881 80.1573 11.0646C80.1573 8.53771 82.1824 6.82202 85.1375 6.82202C86.7255 6.82202 87.9119 7.20555 88.8503 7.75368L88.4959 9.99375C87.5094 9.22801 86.3041 8.80197 85.0582 8.77868C83.2794 8.77868 82.3579 9.70865 82.3579 10.9C82.3579 12.283 83.0465 12.9516 85.2978 13.9274C88.5465 15.336 89.7329 16.4322 89.7329 19.1271C89.7329 21.8712 87.647 23.6547 84.5637 23.6547Z" fill="#F58025"/>
<path d="M103.809 23.4698L103.074 13.6933L99.6376 23.5173H97.501L94.0633 13.6933L93.3596 23.4698H91.4087L92.3571 11.3802H95.3949L98.6925 21.0872L102.034 11.3802H105.004L105.951 23.4698H103.809Z" fill="#F58025"/>
<path d="M108.59 23.4698V11.3802H110.742V23.4698H108.59Z" fill="#F58025"/>
<path d="M117.959 13.2877V23.4698H115.805V13.2877H112.403V11.3802H121.054L121.341 13.2877H117.959Z" fill="#F58025"/>
<path d="M75.6398 13.2877V23.4698H73.4897V13.2877H70.0908V11.3802H78.745L79.0302 13.2877H75.6398Z" fill="#F58025"/>
<path d="M130.45 23.4698V18.1513H124.927V23.4698H122.792V11.3802H124.927V16.1981H130.45V11.3802H132.609V23.4698H130.45Z" fill="#F58025"/>
<path d="M135.412 14.0938C134.634 14.0938 134.101 13.5507 134.101 12.7362C134.101 11.9216 134.646 11.3785 135.419 11.3785C136.192 11.3785 136.73 11.9284 136.73 12.7362C136.73 13.5439 136.178 14.0938 135.412 14.0938ZM135.412 11.5364C134.777 11.5364 134.279 11.9691 134.279 12.7395C134.279 13.51 134.786 13.9275 135.405 13.9275C136.024 13.9275 136.537 13.4964 136.537 12.7395C136.537 11.9827 136.04 11.5364 135.419 11.5364H135.412ZM135.802 13.4727L135.354 12.8295H135.213V13.4489H134.963V11.9453H135.41C135.722 11.9453 135.932 12.1032 135.932 12.3832C135.937 12.4767 135.91 12.5692 135.854 12.6447C135.799 12.7202 135.72 12.7742 135.63 12.7972L136.057 13.4048L135.802 13.4727ZM135.407 12.1812H135.213V12.6241H135.398C135.567 12.6241 135.672 12.5546 135.672 12.4018C135.672 12.2491 135.574 12.1727 135.407 12.1727V12.1812Z" fill="#F58025"/>
<path d="M5.32422 37.4549V31.3457H7.26162C7.58683 31.3394 7.91143 31.3765 8.22695 31.456C8.46753 31.5149 8.69374 31.6223 8.89187 31.7716C9.06331 31.9038 9.19669 32.0796 9.27834 32.2807C9.36479 32.4927 9.40728 32.7202 9.40323 32.9493C9.4033 33.0969 9.37995 33.2436 9.33403 33.3838C9.28572 33.5246 9.21381 33.656 9.12139 33.7724C9.02061 33.8974 8.90035 34.0051 8.7653 34.0914C8.60802 34.1916 8.43762 34.2693 8.25901 34.3222C8.63759 34.375 8.99098 34.5432 9.27159 34.8042C9.38629 34.9273 9.47526 35.0722 9.53323 35.2305C9.59121 35.3888 9.61701 35.5572 9.60912 35.7256C9.6121 35.969 9.56379 36.2101 9.46736 36.4333C9.3724 36.6464 9.22974 36.8346 9.05051 36.9831C8.85124 37.1458 8.62176 37.2669 8.37546 37.3395C8.082 37.4272 7.777 37.4696 7.47089 37.4651L5.32422 37.4549ZM6.1461 34.0812H7.23293C7.43581 34.085 7.63817 34.0593 7.83373 34.0049C7.98713 33.9626 8.13058 33.8899 8.25564 33.791C8.36599 33.7044 8.45206 33.5903 8.50541 33.4601C8.55917 33.3253 8.58611 33.1811 8.58473 33.0359C8.59724 32.8881 8.57452 32.7394 8.51846 32.6021C8.4624 32.4649 8.37462 32.3431 8.26239 32.2468C8.04806 32.0771 7.7139 31.9956 7.26162 31.9956H6.1461V34.0812ZM6.1461 34.6701V36.7982H7.45907C7.66344 36.8025 7.86723 36.775 8.06324 36.7167C8.2166 36.6713 8.35866 36.5938 8.48009 36.4893C8.58657 36.3937 8.66875 36.2738 8.71974 36.1397C8.7717 35.9968 8.79743 35.8456 8.79568 35.6934C8.80097 35.5509 8.77323 35.4091 8.71465 35.2792C8.65608 35.1493 8.56826 35.0349 8.45816 34.945C8.23314 34.7617 7.89561 34.6701 7.44558 34.6701H6.1461Z" fill="#808285"/>
<path d="M13.2379 35.0247V37.4566H12.4194V35.0247L10.1934 31.3439H10.914C10.9748 31.3417 11.0345 31.3609 11.0827 31.3982C11.1268 31.4375 11.1638 31.484 11.1924 31.5357L12.5847 33.9115C12.6404 34.0116 12.6877 34.1067 12.7265 34.1932C12.7653 34.2798 12.7991 34.3629 12.8311 34.4545C12.8615 34.3663 12.8953 34.2781 12.9324 34.1898C12.9727 34.0939 13.0195 34.0009 13.0725 33.9115L14.4597 31.5357C14.4868 31.4869 14.5216 31.4427 14.5626 31.405C14.6091 31.3638 14.6695 31.3419 14.7314 31.3439H15.4605L13.2379 35.0247Z" fill="#808285"/>
<path d="M19.0143 37.455H18.1924V31.3457H19.0143V37.455Z" fill="#808285"/>
<path d="M21.316 31.3711C21.363 31.4007 21.4038 31.4393 21.4358 31.4848L24.9562 36.0905C24.9478 36.0159 24.9427 35.9446 24.9393 35.875C24.936 35.8054 24.9393 35.7376 24.9393 35.6714V31.344H25.66V37.4532H25.2448C25.1867 37.4557 25.1288 37.4441 25.076 37.4193C25.0252 37.3903 24.981 37.351 24.9461 37.3039L21.4324 32.7033C21.4324 32.7746 21.4426 32.8442 21.4443 32.912C21.4459 32.9799 21.4443 33.0444 21.4443 33.1004V37.4549H20.7236V31.3457H21.1472C21.2047 31.3409 21.2624 31.3497 21.316 31.3711Z" fill="#808285"/>
<path d="M26.5293 31.3439H27.1858C27.2498 31.341 27.3129 31.3602 27.3647 31.3982C27.4095 31.436 27.4443 31.4844 27.4659 31.5391L29.1839 35.8512C29.2255 35.9544 29.2616 36.0597 29.292 36.1668C29.324 36.2805 29.3561 36.3993 29.3865 36.5215C29.4135 36.3993 29.4405 36.2805 29.4692 36.1668C29.4969 36.0594 29.5319 35.9539 29.5738 35.8512L31.2834 31.5391C31.3065 31.4872 31.3411 31.4413 31.3846 31.405C31.435 31.3636 31.4985 31.342 31.5635 31.3439H32.2251L29.7476 37.4532H29.0051L26.5293 31.3439Z" fill="#808285"/>
<path d="M36.824 31.344V32.0228H33.906V34.0592H36.2687V34.7075H33.906V36.7931H36.824V37.4719H33.0791V31.3627L36.824 31.344Z" fill="#808285"/>
<path d="M41.2116 32.2976C41.1918 32.3353 41.1642 32.3683 41.1306 32.3944C41.0989 32.4176 41.0601 32.429 41.0209 32.4266C40.9583 32.4212 40.8991 32.3956 40.8522 32.3536C40.788 32.3061 40.707 32.2518 40.6108 32.1941C40.4987 32.1295 40.3806 32.0761 40.2581 32.0346C39.9369 31.936 39.5938 31.936 39.2725 32.0346C39.1422 32.0775 39.0217 32.1462 38.9181 32.2366C38.8256 32.3196 38.7524 32.4222 38.7038 32.5369C38.6547 32.6551 38.63 32.7822 38.6312 32.9103C38.6259 33.0621 38.6697 33.2116 38.7561 33.3362C38.8481 33.4539 38.963 33.5514 39.0937 33.623C39.2421 33.7077 39.3988 33.7771 39.5611 33.8301L40.0944 34.0116C40.2767 34.0744 40.4556 34.144 40.6294 34.2221C40.7989 34.2973 40.9565 34.3974 41.0969 34.519C41.2381 34.6408 41.3529 34.7904 41.4344 34.9586C41.523 35.1598 41.5657 35.3784 41.5593 35.5983C41.5611 35.8553 41.5147 36.1104 41.4226 36.3501C41.3358 36.5807 41.2005 36.7897 41.026 36.9627C40.8434 37.1423 40.6255 37.2816 40.3864 37.3717C40.1102 37.4756 39.8171 37.5262 39.5223 37.5211C39.1529 37.5261 38.7865 37.4527 38.4473 37.3055C38.1279 37.1718 37.8395 36.973 37.6001 36.7218L37.8381 36.3298C37.86 36.2983 37.8882 36.2718 37.9207 36.2517C37.9526 36.23 37.9903 36.2187 38.0288 36.2194C38.105 36.2271 38.1765 36.2606 38.2313 36.3145C38.3089 36.379 38.4 36.4485 38.5182 36.5266C38.649 36.6109 38.7881 36.6814 38.9333 36.737C39.1242 36.8062 39.3262 36.839 39.5291 36.8338C39.7068 36.8366 39.8837 36.8091 40.0522 36.7523C40.1954 36.7035 40.3269 36.6255 40.4387 36.5232C40.545 36.4257 40.6286 36.3057 40.6834 36.1719C40.7411 36.0268 40.7698 35.8717 40.7678 35.7154C40.7751 35.5544 40.7313 35.3951 40.6429 35.2606C40.5557 35.1395 40.4434 35.0387 40.3138 34.9654C40.167 34.8805 40.0114 34.8122 39.8497 34.7617L39.3147 34.592C39.1332 34.5345 38.9552 34.4665 38.7814 34.3884C38.6118 34.3152 38.4551 34.2149 38.3173 34.0914C38.1732 33.9643 38.0581 33.8074 37.9798 33.6315C37.8498 33.3228 37.8148 32.982 37.8795 32.6531C37.9442 32.3243 38.1055 32.0225 38.3427 31.7868C38.5121 31.6244 38.7116 31.4969 38.93 31.4118C39.1864 31.314 39.459 31.2662 39.7333 31.271C40.051 31.2692 40.3663 31.3267 40.6632 31.4407C40.9362 31.5456 41.1853 31.7049 41.3956 31.909L41.2116 32.2976Z" fill="#808285"/>
<path d="M46.8131 31.344V32.0381H44.8487V37.4549H44.0268V32.0381H42.0557V31.344H46.8131Z" fill="#808285"/>
<path d="M52.9915 34.4002C52.9961 34.8302 52.9229 35.2574 52.7755 35.6611C52.6414 36.029 52.4335 36.3652 52.1645 36.6487C51.8978 36.9277 51.5751 37.1464 51.2178 37.2902C50.8267 37.4474 50.4086 37.5252 49.9875 37.5193C49.5697 37.5247 49.155 37.4469 48.7673 37.2902C48.41 37.1464 48.0873 36.9277 47.8205 36.6487C47.5523 36.3646 47.3445 36.0286 47.2096 35.6611C46.9217 34.846 46.9217 33.9561 47.2096 33.141C47.3451 32.7733 47.5529 32.4368 47.8205 32.1516C48.087 31.8711 48.4098 31.6507 48.7673 31.5051C49.1549 31.3478 49.5696 31.2694 49.9875 31.2743C50.407 31.2695 50.8233 31.348 51.2127 31.5051C51.5703 31.6507 51.893 31.8711 52.1595 32.1516C52.4279 32.4362 52.6357 32.7729 52.7704 33.141C52.9194 33.5437 52.9944 33.9704 52.9915 34.4002ZM52.1476 34.4002C52.1526 34.0575 52.1013 33.7163 51.9958 33.3904C51.9045 33.1108 51.7569 32.8532 51.562 32.6336C51.3752 32.426 51.1446 32.263 50.887 32.1567C50.3147 31.9372 49.6821 31.9372 49.1099 32.1567C48.8529 32.2641 48.6225 32.4269 48.4348 32.6336C48.2389 32.8526 48.0906 33.1104 47.9994 33.3904C47.7969 34.0482 47.7969 34.7521 47.9994 35.4099C48.0914 35.689 48.2396 35.9461 48.4348 36.1651C48.6226 36.3708 48.8531 36.5324 49.1099 36.6385C49.6826 36.8557 50.3143 36.8557 50.887 36.6385C51.1444 36.5335 51.3751 36.3717 51.562 36.1651C51.7562 35.9456 51.9037 35.6886 51.9958 35.4099C52.1015 35.0841 52.1528 34.7429 52.1476 34.4002Z" fill="#808285"/>
<path d="M55.1042 34.9044V37.4499H54.2856V31.3407H56.0037C56.3393 31.3348 56.6741 31.3742 56.9994 31.4577C57.2512 31.522 57.4873 31.6375 57.693 31.7972C57.8701 31.9394 58.0093 32.1237 58.098 32.3334C58.1883 32.5557 58.2331 32.7941 58.2297 33.0343C58.2315 33.2406 58.1972 33.4457 58.1284 33.6401C58.0615 33.8265 57.9615 33.999 57.8331 34.1492C57.6993 34.303 57.54 34.4322 57.3622 34.531C57.1649 34.6408 56.9529 34.7214 56.7327 34.7703C56.8409 34.8361 56.9336 34.9246 57.0044 35.03L58.7765 37.4567H58.0474C57.981 37.4628 57.9142 37.4502 57.8546 37.4202C57.7949 37.3902 57.7448 37.3441 57.7099 37.287L56.1319 35.1029C56.0925 35.0419 56.0385 34.9918 55.975 34.957C55.8948 34.9219 55.8075 34.9062 55.7201 34.9112L55.1042 34.9044ZM55.1042 34.3036H55.9648C56.1796 34.3076 56.3937 34.2778 56.5994 34.2154C56.7667 34.1651 56.9223 34.0814 57.0567 33.9693C57.1778 33.8655 57.2731 33.7348 57.3352 33.5875C57.3978 33.4317 57.4294 33.2651 57.428 33.0971C57.4384 32.9407 57.4111 32.7841 57.3486 32.6405C57.286 32.4969 57.19 32.3706 57.0686 32.2723C56.8306 32.089 56.4745 31.9957 56.0037 31.9957H55.1042V34.3036Z" fill="#808285"/>
<path d="M60.1588 31.0231C60.2372 31.1503 60.2974 31.288 60.3377 31.4321C60.4452 31.8183 60.3973 32.2316 60.2043 32.5826C60.0697 32.8278 59.8918 33.0463 59.6795 33.2275L59.4466 33.0832C59.4274 33.0724 59.412 33.0558 59.4027 33.0357C59.3961 33.0196 59.3927 33.0023 59.3926 32.9848C59.3923 32.9659 59.396 32.947 59.4032 32.9295C59.4105 32.912 59.4212 32.8962 59.4348 32.883C59.4803 32.8287 59.5225 32.7693 59.5664 32.7133C59.6084 32.6485 59.6461 32.581 59.6795 32.5114C59.7149 32.4418 59.7421 32.3683 59.7605 32.2924C59.7811 32.2132 59.7913 32.1316 59.7909 32.0498C59.7903 31.9544 59.7767 31.8596 59.7504 31.7681C59.7168 31.6595 59.6685 31.5562 59.6069 31.4609C59.5885 31.4333 59.5785 31.4008 59.5782 31.3676C59.5783 31.3334 59.5895 31.3002 59.6103 31.2732C59.6311 31.2462 59.6601 31.2269 59.693 31.2182L60.1588 31.0231Z" fill="#808285"/>
<path d="M64.744 32.2976C64.7242 32.3353 64.6966 32.3683 64.663 32.3944C64.6313 32.4176 64.5925 32.429 64.5533 32.4266C64.4907 32.4212 64.4316 32.3956 64.3846 32.3536C64.3205 32.3061 64.2394 32.2518 64.1432 32.1941C64.0311 32.1295 63.913 32.0761 63.7905 32.0346C63.4693 31.936 63.1262 31.936 62.805 32.0346C62.6746 32.0775 62.5541 32.1462 62.4505 32.2365C62.358 32.3196 62.2848 32.4222 62.2362 32.5369C62.1879 32.6554 62.1632 32.7822 62.1636 32.9102C62.1583 33.0621 62.2021 33.2116 62.2885 33.3362C62.3805 33.4538 62.4954 33.5514 62.6261 33.623C62.7745 33.7077 62.9312 33.777 63.0935 33.83L63.6235 34.0065C63.8057 34.0693 63.9829 34.1389 64.1568 34.2169C64.3263 34.2922 64.4838 34.3923 64.6242 34.5139C64.7654 34.6357 64.8803 34.7853 64.9618 34.9535C65.0504 35.1547 65.0931 35.3733 65.0866 35.5932C65.0881 35.85 65.0424 36.1049 64.9516 36.345C64.8643 36.5757 64.7284 36.7846 64.5533 36.9576C64.3707 37.1372 64.1529 37.2765 63.9137 37.3666C63.6376 37.4706 63.3445 37.5213 63.0497 37.5159C62.6802 37.5208 62.3139 37.4474 61.9746 37.3004C61.6623 37.1644 61.3805 36.9664 61.146 36.7183L61.384 36.3263C61.4064 36.2953 61.4344 36.2688 61.4667 36.2483C61.4985 36.2265 61.5362 36.2153 61.5747 36.216C61.6509 36.2237 61.7224 36.2572 61.7772 36.3111C61.8548 36.3756 61.9459 36.4451 62.0641 36.5232C62.1953 36.6078 62.335 36.6783 62.4809 36.7336C62.6717 36.8031 62.8738 36.8359 63.0767 36.8304C63.2538 36.8331 63.4302 36.8055 63.5981 36.7489C63.7416 36.6998 63.8737 36.6218 63.9863 36.5198C64.0921 36.4222 64.1751 36.3022 64.2293 36.1685C64.2878 36.0236 64.3165 35.8684 64.3137 35.712C64.321 35.551 64.2773 35.3917 64.1888 35.2572C64.1018 35.1365 63.9902 35.0358 63.8614 34.9619C63.7139 34.8774 63.5577 34.8091 63.3956 34.7583L62.8623 34.5886C62.6803 34.5311 62.5016 34.4631 62.3273 34.385C62.1577 34.3117 62.001 34.2115 61.8632 34.088C61.7191 33.9609 61.604 33.804 61.5257 33.6281C61.3589 33.2087 61.3589 32.7408 61.5257 32.3214C61.6092 32.1192 61.7327 31.9362 61.8886 31.7834C62.058 31.6209 62.2576 31.4935 62.4759 31.4084C62.7323 31.3106 63.0049 31.2628 63.2792 31.2675C63.5969 31.2657 63.9122 31.3233 64.2091 31.4372C64.4826 31.5421 64.7323 31.7014 64.9432 31.9056L64.744 32.2976Z" fill="#808285"/>
<path d="M67.9336 37.4549V31.3456H69.8727C70.1979 31.3395 70.5225 31.3765 70.838 31.4559C71.0785 31.5152 71.3046 31.6226 71.5029 31.7716C71.6734 31.9048 71.8066 32.0802 71.8894 32.2807C71.9751 32.4929 72.0175 32.7203 72.0143 32.9493C72.0144 33.0969 71.991 33.2436 71.9451 33.3837C71.8968 33.5245 71.8249 33.656 71.7325 33.7724C71.6312 33.8969 71.511 34.0046 71.3764 34.0914C71.2191 34.1916 71.0487 34.2693 70.8701 34.3222C71.2489 34.3742 71.6025 34.5425 71.8827 34.8041C71.9976 34.9271 72.0867 35.072 72.1447 35.2303C72.2027 35.3887 72.2284 35.5571 72.2202 35.7256C72.2226 35.9691 72.1737 36.2102 72.0767 36.4333C71.9819 36.646 71.8399 36.8341 71.6616 36.9831C71.4623 37.1458 71.2328 37.2669 70.9865 37.3395C70.6925 37.4271 70.3869 37.4695 70.0803 37.4651L67.9336 37.4549ZM68.7572 34.0812H69.8423C70.0457 34.085 70.2487 34.0593 70.4448 34.0049C70.5982 33.9626 70.7416 33.8899 70.8667 33.791C70.9761 33.7038 71.0615 33.5899 71.1148 33.4601C71.1699 33.3256 71.1975 33.1813 71.1958 33.0359C71.2079 32.8881 71.185 32.7395 71.129 32.6023C71.0729 32.4652 70.9854 32.3433 70.8735 32.2467C70.6574 32.077 70.325 31.9956 69.8727 31.9956H68.7572V34.0812ZM68.7572 34.6701V36.7981H70.0701C70.2745 36.8023 70.4783 36.7749 70.6743 36.7167C70.8273 36.6717 70.9689 36.5941 71.0895 36.4893C71.1965 36.3941 71.2787 36.2741 71.3291 36.1397C71.3811 35.9968 71.4068 35.8456 71.4051 35.6934C71.4107 35.5508 71.3832 35.4089 71.3246 35.2789C71.266 35.149 71.1779 35.0346 71.0675 34.945C70.8425 34.7617 70.505 34.6701 70.0549 34.6701H68.7572Z" fill="#808285"/>
<path d="M75.8689 36.7982C76.1004 36.8027 76.3302 36.7587 76.5439 36.6692C76.7372 36.5894 76.9102 36.467 77.0502 36.3112C77.191 36.1513 77.2979 35.9642 77.3641 35.7613C77.4385 35.5342 77.475 35.2962 77.4721 35.0571V31.344H78.2907V35.0571C78.2932 35.3921 78.236 35.7249 78.1219 36.0396C78.0157 36.33 77.8527 36.596 77.6426 36.822C77.4268 37.0437 77.1668 37.2172 76.8798 37.3311C76.2282 37.584 75.5062 37.584 74.8546 37.3311C74.568 37.2164 74.3082 37.0431 74.0918 36.822C73.8816 36.5977 73.7191 36.3326 73.6142 36.043C73.4992 35.7285 73.4421 35.3956 73.4455 35.0605V31.344H74.264V35.0537C74.2618 35.2928 74.2982 35.5306 74.372 35.7579C74.439 35.9609 74.5463 36.1479 74.6876 36.3078C74.8275 36.4642 75.0005 36.5871 75.1938 36.6675C75.4073 36.7581 75.6373 36.8026 75.8689 36.7982Z" fill="#808285"/>
<path d="M82.8962 32.2978C82.8764 32.3354 82.8488 32.3684 82.8152 32.3945C82.7835 32.4177 82.7447 32.4291 82.7055 32.4267C82.6427 32.4219 82.5834 32.3962 82.5367 32.3538C82.4585 32.2964 82.3774 32.2432 82.2937 32.1942C82.1822 32.1296 82.0646 32.0762 81.9427 32.0347C81.6209 31.9358 81.2771 31.9358 80.9554 32.0347C80.8253 32.078 80.7049 32.1467 80.601 32.2367C80.509 32.3202 80.4359 32.4226 80.3867 32.537C80.3389 32.6556 80.3149 32.7825 80.3158 32.9104C80.3104 33.0622 80.3542 33.2117 80.4407 33.3363C80.5323 33.4543 80.6472 33.552 80.7782 33.6231C80.926 33.7081 81.0821 33.7775 81.244 33.8302C81.4128 33.8879 81.5967 33.949 81.779 34.0117C81.9612 34.0745 82.1401 34.1441 82.314 34.2222C82.4832 34.297 82.6402 34.3971 82.7797 34.5192C82.9214 34.6405 83.0364 34.7902 83.1173 34.9587C83.2067 35.1596 83.2495 35.3784 83.2422 35.5985C83.2445 35.8554 83.1987 36.1104 83.1071 36.3502C83.0198 36.5805 82.8846 36.7893 82.7106 36.9629C82.5273 37.1424 82.3089 37.2817 82.0692 37.3718C81.7937 37.4757 81.5011 37.5264 81.2069 37.5212C80.8374 37.5262 80.4711 37.4528 80.1318 37.3057C79.819 37.1706 79.537 36.9725 79.3032 36.7236L79.5395 36.3316C79.5625 36.301 79.5904 36.2746 79.6222 36.2535C79.6542 36.2322 79.6918 36.2209 79.7302 36.2213C79.8071 36.2285 79.8791 36.2621 79.9344 36.3163C80.0264 36.3919 80.1221 36.4627 80.2213 36.5284C80.3521 36.6127 80.4912 36.6832 80.6364 36.7389C80.8273 36.8082 81.0293 36.841 81.2322 36.8356C81.4094 36.8386 81.5857 36.811 81.7537 36.7541C81.8973 36.7054 82.0295 36.6274 82.1418 36.525C82.2476 36.427 82.3311 36.3072 82.3865 36.1737C82.4442 36.0286 82.4729 35.8735 82.4709 35.7172C82.4774 35.5563 82.4337 35.3973 82.346 35.2624C82.258 35.142 82.1459 35.0415 82.0169 34.9672C81.87 34.8826 81.7144 34.8144 81.5528 34.7635L81.0179 34.5938C80.8359 34.536 80.6573 34.468 80.4829 34.3902C80.3137 34.3162 80.1571 34.216 80.0188 34.0932C79.8787 33.9647 79.7672 33.808 79.6914 33.6333C79.5613 33.3246 79.5264 32.9838 79.5911 32.655C79.6558 32.3261 79.8171 32.0243 80.0542 31.7887C80.2227 31.6258 80.4218 31.4983 80.6398 31.4136C80.8969 31.316 81.1701 31.2682 81.4448 31.2728C81.762 31.271 82.0768 31.3285 82.373 31.4425C82.6468 31.547 82.8965 31.7063 83.1071 31.9108L82.8962 32.2978Z" fill="#808285"/>
<path d="M85.3399 37.455H84.5181V31.3457H85.3399V37.455Z" fill="#808285"/>
<path d="M87.6417 31.371C87.6893 31.4004 87.7306 31.439 87.7632 31.4847L91.2819 36.0904C91.2735 36.0157 91.2684 35.9444 91.265 35.8749C91.2617 35.8053 91.265 35.7374 91.265 35.6712V31.3438H91.9856V37.4531H91.5705C91.5123 37.4555 91.4545 37.4439 91.4017 37.4191C91.3509 37.3901 91.3067 37.3508 91.2718 37.3038L87.7564 32.7014C87.7564 32.7727 87.7666 32.8423 87.7699 32.9102C87.7733 32.9781 87.7699 33.0425 87.7699 33.0985V37.4531H87.0493V31.3438H87.4729C87.5305 31.3394 87.5883 31.3487 87.6417 31.371Z" fill="#808285"/>
<path d="M97.2966 31.344V32.0228H94.3719V34.0592H96.7346V34.7075H94.3719V36.7931H97.2899V37.4719H93.5518V31.3627L97.2966 31.344Z" fill="#808285"/>
<path d="M101.678 32.2977C101.658 32.3353 101.63 32.3683 101.597 32.3944C101.565 32.4176 101.526 32.429 101.487 32.4266C101.425 32.4212 101.365 32.3956 101.318 32.3537C101.254 32.3061 101.173 32.2518 101.077 32.1941C100.965 32.1295 100.847 32.0761 100.724 32.0346C100.403 31.936 100.06 31.936 99.7388 32.0346C99.6085 32.0775 99.488 32.1462 99.3844 32.2366C99.2919 32.3196 99.2187 32.4222 99.1701 32.5369C99.121 32.6552 99.0963 32.7822 99.0975 32.9103C99.0922 33.0621 99.136 33.2116 99.2224 33.3362C99.3144 33.4539 99.4293 33.5514 99.56 33.623C99.7084 33.7077 99.8651 33.7771 100.027 33.8301L100.561 34.0116C100.745 34.0744 100.922 34.144 101.096 34.2221C101.265 34.2973 101.423 34.3974 101.563 34.5191C101.704 34.6408 101.819 34.7904 101.901 34.9586C101.989 35.1598 102.032 35.3784 102.026 35.5984C102.027 35.8554 101.981 36.1104 101.889 36.3501C101.802 36.5807 101.667 36.7897 101.492 36.9628C101.31 37.1423 101.092 37.2816 100.853 37.3717C100.577 37.4756 100.283 37.5263 99.9886 37.5211C99.6192 37.526 99.2529 37.4525 98.9136 37.3056C98.6013 37.1695 98.3194 36.9715 98.085 36.7235L98.3229 36.3315C98.3449 36.3 98.373 36.2735 98.4056 36.2534C98.4374 36.2317 98.4752 36.2204 98.5136 36.2212C98.5899 36.2288 98.6613 36.2623 98.7161 36.3162C98.7938 36.3807 98.8849 36.4503 99.003 36.5283C99.1339 36.6126 99.273 36.6831 99.4182 36.7388C99.6096 36.8081 99.8122 36.8409 100.016 36.8355C100.193 36.8382 100.369 36.8106 100.537 36.754C100.681 36.7049 100.813 36.6269 100.925 36.5249C101.03 36.4268 101.113 36.307 101.168 36.1736C101.227 36.0288 101.255 35.8735 101.253 35.7171C101.26 35.5561 101.216 35.3968 101.128 35.2623C101.038 35.1402 100.923 35.0394 100.79 34.9671C100.643 34.8822 100.488 34.8139 100.326 34.7634L99.7928 34.5937C99.6108 34.5362 99.4322 34.4682 99.2579 34.3901C99.0883 34.3169 98.9315 34.2166 98.7938 34.0931C98.6527 33.9652 98.5405 33.8084 98.4647 33.6332C98.3346 33.3245 98.2997 32.9837 98.3644 32.6549C98.4291 32.326 98.5904 32.0242 98.8275 31.7886C98.997 31.6261 99.1965 31.4986 99.4148 31.4135C99.6713 31.3157 99.9439 31.2679 100.218 31.2727C100.536 31.2709 100.851 31.3284 101.148 31.4424C101.421 31.5473 101.67 31.7066 101.88 31.9107L101.678 32.2977Z" fill="#808285"/>
<path d="M106.26 32.2977C106.24 32.3353 106.213 32.3683 106.179 32.3944C106.147 32.4174 106.107 32.4287 106.068 32.4266C106.005 32.4212 105.946 32.3956 105.899 32.3537C105.821 32.2963 105.741 32.243 105.658 32.1941C105.546 32.1292 105.428 32.0758 105.305 32.0346C104.984 31.936 104.641 31.936 104.319 32.0346C104.189 32.0775 104.069 32.1462 103.965 32.2366C103.873 32.3201 103.8 32.4225 103.751 32.5369C103.702 32.6554 103.678 32.7823 103.678 32.9103C103.672 33.0624 103.717 33.2122 103.805 33.3362C103.896 33.4547 104.011 33.5524 104.142 33.623C104.29 33.708 104.446 33.7774 104.608 33.8301L105.143 34.0116C105.325 34.0744 105.502 34.144 105.676 34.2221C105.846 34.2965 106.004 34.3967 106.144 34.5191C106.285 34.6408 106.4 34.7904 106.481 34.9586C106.57 35.1598 106.613 35.3784 106.606 35.5984C106.608 35.8552 106.562 36.1101 106.471 36.3501C106.384 36.5804 106.249 36.7892 106.075 36.9628C105.891 37.1423 105.673 37.2816 105.433 37.3717C105.158 37.4756 104.865 37.5263 104.571 37.5211C104.201 37.5263 103.835 37.4528 103.496 37.3056C103.183 37.1701 102.9 36.9721 102.666 36.7235L102.903 36.3315C102.926 36.3009 102.954 36.2745 102.986 36.2534C103.018 36.2319 103.056 36.2206 103.094 36.2212C103.171 36.2292 103.243 36.2626 103.298 36.3162C103.39 36.3918 103.485 36.4626 103.584 36.5283C103.715 36.6129 103.855 36.6835 104 36.7388C104.191 36.8081 104.393 36.8409 104.596 36.8355C104.773 36.8382 104.95 36.8106 105.118 36.754C105.261 36.7049 105.393 36.6269 105.506 36.5249C105.612 36.4273 105.695 36.3073 105.749 36.1736C105.808 36.0289 105.837 35.8736 105.835 35.7171C105.842 35.5559 105.797 35.3966 105.708 35.2623C105.621 35.1416 105.51 35.0409 105.381 34.9671C105.234 34.8828 105.078 34.8146 104.917 34.7634L104.382 34.5937C104.2 34.5362 104.021 34.4682 103.847 34.3901C103.677 34.3165 103.521 34.2162 103.383 34.0931C103.24 33.9651 103.125 33.8084 103.045 33.6332C102.915 33.3245 102.88 32.9837 102.945 32.6549C103.01 32.326 103.171 32.0242 103.408 31.7886C103.578 31.6261 103.777 31.4986 103.995 31.4135C104.252 31.3157 104.524 31.2679 104.799 31.2727C105.116 31.2708 105.432 31.3283 105.729 31.4424C106.002 31.5469 106.252 31.7062 106.463 31.9107L106.26 32.2977Z" fill="#808285"/>
<path d="M114.717 34.4002C114.722 34.8269 114.649 35.2509 114.501 35.6509C114.367 36.011 114.158 36.3383 113.888 36.6108C113.618 36.8833 113.294 37.0946 112.936 37.2308C112.547 37.3806 112.133 37.4549 111.716 37.4497H109.448V31.3404H111.723C112.137 31.3371 112.549 31.4126 112.936 31.5627C113.292 31.7005 113.615 31.9128 113.883 32.1856C114.15 32.4617 114.358 32.7904 114.494 33.1512C114.644 33.5501 114.72 33.9736 114.717 34.4002ZM113.873 34.4002C113.877 34.0585 113.825 33.7184 113.719 33.3938C113.628 33.1164 113.481 32.861 113.287 32.6437C113.1 32.4384 112.869 32.2783 112.612 32.1754C112.33 32.0615 112.03 32.0039 111.726 32.0057H110.278V36.7777H111.726C112.03 36.7794 112.33 36.7218 112.612 36.608C112.868 36.5039 113.099 36.3446 113.287 36.1413C113.482 35.9249 113.629 35.67 113.719 35.3929C113.824 35.0726 113.876 34.7373 113.873 34.4002Z" fill="#808285"/>
<path d="M120.743 37.455H120.107C120.046 37.4558 119.987 37.4361 119.938 37.399C119.892 37.3619 119.857 37.3133 119.835 37.2581L119.268 35.7834H116.532L115.964 37.2581C115.942 37.3115 115.907 37.3587 115.862 37.3956C115.812 37.4357 115.748 37.4567 115.684 37.455H115.047L117.478 31.3457H118.321L120.743 37.455ZM116.76 35.1945H119.03L118.075 32.7084C118.002 32.52 117.942 32.3273 117.893 32.1314C117.862 32.2485 117.832 32.3554 117.802 32.4539C117.771 32.5523 117.744 32.6388 117.716 32.7118L116.76 35.1945Z" fill="#808285"/>
<path d="M122.571 37.455H121.749V31.3457H122.571V37.455Z" fill="#808285"/>
<path d="M125.108 36.7592H127.739V37.455H124.286V31.3457H125.108V36.7592Z" fill="#808285"/>
<path d="M130.172 35.0248V37.4566H129.354V35.0248L127.126 31.3456H127.847C127.907 31.3441 127.967 31.3633 128.015 31.3999C128.059 31.4392 128.096 31.4857 128.125 31.5374L129.516 33.9132C129.568 34.0043 129.616 34.0984 129.657 34.1949C129.696 34.2832 129.732 34.3646 129.762 34.4563C129.794 34.368 129.827 34.2798 129.863 34.1915C129.904 34.0959 129.951 34.003 130.003 33.9132L131.391 31.5374C131.418 31.4885 131.454 31.4444 131.495 31.4067C131.542 31.3652 131.602 31.3433 131.664 31.3456H132.395L130.172 35.0248Z" fill="#808285"/>
</g>
</g>
<defs>
<clipPath id="clip0">
<rect width="170.635" height="30.7143" fill="white" transform="translate(-33.9048 6.82544)"/>
</clipPath>
</defs>
</svg>
