<?xml version="1.0" encoding="utf-8"?>
<!-- Generator: Adobe Illustrator 25.2.1, SVG Export Plug-In . SVG Version: 6.00 Build 0)  -->
<svg version="1.1" id="Layer_1" xmlns="http://www.w3.org/2000/svg" xmlns:xlink="http://www.w3.org/1999/xlink" x="0px" y="0px"
	 viewBox="0 0 891.67 124" style="enable-background:new 0 0 891.67 124;" xml:space="preserve">
<style type="text/css">
	.st0{fill:#ffffff;}
	.st1{fill:#ffffff;}
</style>
<path class="st0" d="M18.81,93.12l5.17-7.27v-48l-5.17-7.27h20.17l-5.17,7.27v48l5.17,7.27H18.81z"/>
<path class="st0" d="M75.47,93.05c-5.62-9.6-22.27-34.8-22.27-34.8v34.87h-7.42v-45.6l-5.17-7.2h11.17L73.74,73.7V40.33h7.5v52.72
	H75.47z"/>
<path class="st0" d="M109.89,93.12h-6.82l-15.6-48.15l-3.3-4.65h11.4l11.85,37.27l10.35-32.62l-3.3-4.65h12.52L109.89,93.12z"/>
<path class="st0" d="M157.58,93.12h-25.87v-52.8h27.3l-2.85,6.97h-15.45v15.37h15.07l-2.92,7.27h-12.15v15.52h19.95L157.58,93.12z"
	/>
<path class="st0" d="M176.63,94.25c-4.8,0-9.9-0.98-13.65-2.85l2.4-8.02c5.4,5.25,20.4,5.17,20.4-3.23c0-11.25-22.57-10.12-22.57-27
	c0-8.55,6.6-13.87,16.8-13.87c3.97,0,8.17,0.6,11.7,2.55l-2.85,7.87c-3.83-4.5-16.87-4.87-16.87,2.62c0,9.82,22.5,10.8,22.5,25.5
	C194.48,87.12,188.25,94.25,176.63,94.25z"/>
<path class="st0" d="M216.9,47.3v45.82h-9V47.3h-13.8l2.1-6.97h31.87l2.4,6.97H216.9z"/>
<path class="st0" d="M249.3,94.17c-14.77,0-19.65-16.12-19.65-28.12c0-12.07,6.15-26.77,20.17-26.77
	c14.77,0,19.65,16.12,19.65,28.12C269.47,79.48,263.32,94.17,249.3,94.17z M249.3,46.63c-9.15,0-10.35,12.52-10.35,19.12
	c0,6.6,1.35,21.07,10.87,21.07c9.15,0,10.35-12.52,10.35-19.12C260.17,61.1,258.82,46.63,249.3,46.63z"/>
<path class="st0" d="M302.47,93.12L286.42,69.5v23.62h-9V45.8l-3.9-5.47h19.57c8.77,0,15.6,6,15.6,14.85c0,7.8-3.6,13.95-11.55,15.3
	l16.65,22.65H302.47z M291.67,47.23h-5.25V64.4h5.47c4.35,0,8.1-3.15,8.1-8.77C300,50.83,297,47.23,291.67,47.23z"/>
<path class="st0" d="M313.41,56.83c1.5-2.7,2.18-5.85,2.25-8.62c-3.45-0.3-5.17-2.17-5.17-4.95c0-3.22,2.32-4.95,4.72-4.95
	c2.77,0,5.7,2.25,5.7,7.05C320.91,49.63,318.36,54.65,313.41,56.83z"/>
<path class="st0" d="M338.07,94.25c-4.8,0-9.9-0.98-13.65-2.85l2.4-8.02c5.4,5.25,20.4,5.17,20.4-3.23c0-11.25-22.57-10.12-22.57-27
	c0-8.55,6.6-13.87,16.8-13.87c3.97,0,8.17,0.6,11.7,2.55l-2.85,7.87c-3.82-4.5-16.88-4.87-16.88,2.62c0,9.82,22.5,10.8,22.5,25.5
	C355.92,87.12,349.7,94.25,338.07,94.25z"/>
<path class="st0" d="M395.75,92.62h-21.07l4.88-6.82V36.9l-4.88-6.82h21.52c12.67,0,18.37,7.42,18.37,15.37
	c0,7.87-3.97,12.75-8.92,14.17c6.08,1.42,11.4,7.5,11.4,15C417.05,85.88,410.15,92.62,395.75,92.62z M395.9,37.28h-6.82V56.7h5.62
	c6.45,0,10.35-4.2,10.35-10.72C405.05,41.48,402.12,37.28,395.9,37.28z M397.4,64.28h-8.32v20.77h7.5c7.05,0,10.88-4.27,10.88-10.12
	C407.45,68.78,403.47,64.28,397.4,64.28z"/>
<path class="st0" d="M441.28,93.45c-11.25,0-17.7-6.98-17.7-20.48v-28.5l-3.3-4.65h12.3v33c0,8.47,3.07,12.9,9.07,12.9
	s9.3-4.5,9.3-12.52V45.53l-4.05-5.7h12.07v33.75C458.98,85.5,453.13,93.45,441.28,93.45z"/>
<path class="st0" d="M477.71,93.75c-4.8,0-9.9-0.98-13.65-2.85l2.4-8.02c5.4,5.25,20.4,5.17,20.4-3.23c0-11.25-22.57-10.12-22.57-27
	c0-8.55,6.6-13.87,16.8-13.87c3.97,0,8.17,0.6,11.7,2.55l-2.85,7.87c-3.82-4.5-16.87-4.87-16.87,2.62c0,9.83,22.5,10.8,22.5,25.5
	C495.56,86.62,489.33,93.75,477.71,93.75z"/>
<path class="st0" d="M502.53,92.62v-47.7l-3.67-5.1h12.67v52.8H502.53z"/>
<path class="st0" d="M551.36,92.55c-5.62-9.6-22.28-34.8-22.28-34.8v34.87h-7.42v-45.6l-5.18-7.2h11.18l21.97,33.37V39.83h7.5v52.72
	H551.36z"/>
<path class="st0" d="M592.61,92.62h-25.87V42.75l-2.1-2.92h29.4l-2.85,6.97h-15.45v15.38h15.07l-2.92,7.27h-12.15v15.52h19.95
	L592.61,92.62z"/>
<path class="st0" d="M611.65,93.75c-4.8,0-9.9-0.98-13.65-2.85l2.4-8.02c5.4,5.25,20.4,5.17,20.4-3.23c0-11.25-22.57-10.12-22.57-27
	c0-8.55,6.6-13.87,16.8-13.87c3.97,0,8.18,0.6,11.7,2.55l-2.85,7.87c-3.82-4.5-16.87-4.87-16.87,2.62c0,9.83,22.5,10.8,22.5,25.5
	C629.5,86.62,623.28,93.75,611.65,93.75z"/>
<path class="st0" d="M644.5,93.75c-4.8,0-9.9-0.98-13.65-2.85l2.4-8.02c5.4,5.25,20.4,5.17,20.4-3.23c0-11.25-22.57-10.12-22.57-27
	c0-8.55,6.6-13.87,16.8-13.87c3.97,0,8.17,0.6,11.7,2.55l-2.85,7.87c-3.83-4.5-16.88-4.87-16.88,2.62c0,9.83,22.5,10.8,22.5,25.5
	C662.35,86.62,656.12,93.75,644.5,93.75z"/>
<path class="st0" d="M698.82,94.13H677.6l4.72-7.05V38.55l-4.72-6.97h20.25c18.22,0,26.77,11.55,26.77,30
	C724.62,82.8,715.7,94.13,698.82,94.13z M697.17,39h-4.88v47.47h5.7c10.28,0,16.27-7.12,16.27-24C714.27,47.33,708.95,39,697.17,39z
	"/>
<path class="st0" d="M757.55,94.13l-3.97-13.42h-15.15l-3.97,13.42h-9.3l17.1-47.85l-1.88-4.95h10.72l16.72,52.8H757.55z
	 M746.07,55.13l-5.93,18.82h11.62L746.07,55.13z"/>
<path class="st0" d="M773.6,94.13v-47.7l-3.68-5.1h12.68v52.8H773.6z"/>
<path class="st0" d="M816.2,94.13h-24.75V43.88l-1.87-2.55h10.95v45.15h18.6L816.2,94.13z"/>
<path class="st0" d="M836.21,72v22.12h-9V72.15l-14.32-26.47l-3.15-4.35h11.02l11.78,22.72l9.75-18.52l-3.08-4.2h13.72L836.21,72z"
	/>
<path class="st1" d="M864.72,49.19c-2.88,0-4.98-2.24-4.98-5.14c0-2.87,2.1-5.11,4.98-5.11c2.87,0,4.95,2.24,4.95,5.11
	C869.67,46.95,867.58,49.19,864.72,49.19z M864.72,49.97c3.26,0,5.89-2.64,5.89-5.92c0-3.24-2.63-5.89-5.89-5.89
	c-3.27,0-5.92,2.65-5.92,5.89C858.8,47.32,861.45,49.97,864.72,49.97z M865.51,44.32c1.17-0.03,2.07-0.52,2.07-1.81
	c0-1.09-0.59-1.74-2.34-1.74h-2.88v6.58h0.81v-3.04h1.48l1.88,3.04h0.97L865.51,44.32z M863.17,43.67v-2.34h1.89
	c0.81,0,1.65,0.13,1.65,1.15c0,1.34-1.37,1.18-2.31,1.18H863.17z"/>
</svg>
